<?xml version="1.0" encoding="UTF-8"?>
<svg id="_Слой_2" data-name="Слой 2" xmlns="http://www.w3.org/2000/svg" viewBox="0 0 557.3 338.31">
  <defs>
    <style>
      .cls-1 {
        fill: #050b29;
      }

      .cls-1, .cls-2 {
        stroke-width: 0px;
      }

      .cls-2 {
        fill: #bc0609;
      }
    </style>
  </defs>
  <g id="Layer_1" data-name="Layer 1">
    <g>
      <path class="cls-2" d="m180,246.64c4.82.43,9.65.84,14.47,1.28,7.33.67,14.66,1.31,21.99,2.05,1.51.15,1.93-.36,2.05-1.78.58-7.22,1.25-14.43,1.89-21.64.92-10.31,1.82-20.62,2.79-30.93.12-1.27-.46-3.02.64-3.68.88-.53,2.42.01,3.67.09,8.06.51,16.13,1.05,24.19,1.52,1.47.08,1.83.58,1.76,2.06-.34,7.29-.53,14.59-.77,21.89-.02.63-.48,1.6.9,1.28.16-.04.49.16.56.32.85,1.99,2.66,2.15,4.45,2.37.23.03.55.15.69.04,1.85-1.43,1.69.56,2.17,1.31.16.26.13.79.46.89,2.03.58,4.05,1.2,6.12,1.58.63.11,1.36-.37,1.97.29.1.1.4.18.46.12,1.61-1.54,2.64-1.2,3.31.9.15.47.86.56,1.41.64,5.56.72,11.06,1.82,16.71,2,2.8.09,5.5.04,8.14-.78,2.97-.92,5.69-.93,8.3,1.1,1.47,1.14,3.38,1.47,5.13,2.07,2.35.81,3.06,1.81,2.88,4.31-.39,5.58.4,11.11.44,16.67.01,1.38.81,2.37,1.82,3.16,1.3,1,2.1,2.3,2.43,3.86.58,2.78,2.35,5.45.81,8.45-.79,1.54-1.78,3.15-1.46,4.89.51,2.77-.44,5.1-1.42,7.57-.41,1.03-.76,1.38-1.76,1.74-1.33.48-2.6,1.18-3.95,1.66-1.17.42-2.13.4-2.82-.9-.34-.64-.79-1.49-1.75-1.27-.87.21-1.07,1.05-1.26,1.81-.28,1.1-.53,2.21-.81,3.31-.45,1.76-1.37,3.17-3.01,4.05-.52.28-1.07.58-1.49.99-3.02,3.01-6.61,4.36-10.89,4.01-1.18-.1-2.15.47-1.78,1.99.19.79-.24,1.16-.92,1.2-1.44.08-2.12,1.19-3.14,1.91-1.93,1.37-2.73,3.91-5.22,4.65-1.26.38-1.67,1.34-.55,2.46.3.3.67.66.31,1.07-.84.95-1.07,2.12-1.29,3.29-.14.76-.73.68-1.26.67-.66,0-1.22.16-1.46.8-.24.63.25.99.66,1.34,1.36,1.17,1.19,3.11,1.03,4.28-.3,2.27.93,3.79,1.66,5.51.59,1.39.62,2.93,1.37,4.23.16.28.23.61-.19.69-.89.18-1.73,1.27-2.65.46-2.26-1.98-5.01-2.06-7.75-2.28-.41-.03-.94-.08-1.18-.33-1.56-1.68-3.94-1.95-5.66-3.36-.8-.66-1.79-.92-2.83-1.02-1.31-.12-2.05-.73-2-2.2.05-1.33-.41-2.55-1.09-3.73-1.01-1.77-1.68-3.67-1.7-5.78-.02-1.62-.65-3.02-1.96-4.07-1.52-1.23-2.64-2.75-3.38-4.57-.53-1.31-1.47-2.32-2.64-3.11-1.51-1.01-2.1-2.49-2.42-4.21-.88-4.68-2.08-9.18-6.46-12.06-1.22-.8-2.13-2.09-3.1-3.23-1.2-1.41-2.65-2.19-4.52-2.15-1.38.03-2.72-.08-4.04-.61-3.16-1.26-7.16.36-8.6,3.47-.95,2.05-1.6,4.22-3.39,5.83-1.1.99-2.13,1.18-3.19.33-2.43-1.94-5.16-3.41-7.55-5.45-2.09-1.78-4.31-3.3-5.6-5.85-.59-1.16-1.09-2.2-.77-3.55.4-1.66-.13-3.05-1.01-4.55-1.23-2.08-2.34-4.1-4.7-5.11-.64-.27-.99-1.02-1.29-1.68-.57-1.21-1.34-2.27-2.41-3.09-1.03-.79-1.74-1.78-2.15-3.01-.41-1.25-1.23-2.17-2.44-2.73-.54-.25-1.19-.47-1.3-1.13-.31-1.85-1.2-3.3-2.95-4.25.1-.14.19-.29.29-.43Z"/>
      <path class="cls-1" d="m29.04,142.37c.6.37.94.6,1.29.8,1.03.6,1.65.2,1.74-.88.08-1,0-2.02-.12-3.02-.24-2.04-.53-2.22-2.36-1.37-.76.36-1.14-.06-1.53-.49-.95-1.04-1.17-2.35-1.1-3.68.13-2.31-.54-4.38-1.83-6.25-2.31-3.35-2.55-6.99-1.61-10.82.41-1.68.88-3.34.96-5.1.1-2.06-.41-3.86-1.57-5.58-1.77-2.63-1.71-3.76.25-6.31,1.35-1.76,2.51-3.63,3.63-5.55,1.58-2.7,2.56-5.46,2.35-8.67-.15-2.34.2-2.48,2.41-1.79,11.19,3.46,22.44,6.69,33.79,9.56,1.52.39,2.1.77,1.61,2.6-3.05,11.3-5.91,22.65-8.91,33.97-.33,1.24-.12,2.13.57,3.15,13.37,19.92,26.71,39.87,40.07,59.8.61.91.89,1.81.97,2.95.14,2.22,1.19,4.31,1.26,6.6.02.57.97,1.11,1.68,1.87-3.32.63-4.65,2.67-4.99,5.77-.15,1.39-.66,2.93-2.3,3.61-.73.3-1.12,1.2-.96,1.8.47,1.74-.47,3.72,1.13,5.3.72.72-.02,1.6-.86,1.89-.59.2-1.31.14-1.95.07-7.78-.92-15.56-1.89-23.35-2.76-1.34-.15-1.74-.77-1.72-1.95.01-1.2.03-2.4-.02-3.59-.03-.71-.03-1.47-.29-2.11-1.07-2.72-2.14-5.7-4.14-7.64-2.3-2.24-5.11-3.87-6.57-6.96-.4-.84-1.67-1.08-2.67-1.33-1.77-.45-3.17-1.45-4.13-2.97-1.55-2.47-3.71-3.89-6.54-4.63-4.13-1.07-4.69-2.1-4.1-6.45.46-3.38-.91-6.35-2.11-9.33-.91-2.27-1.98-4.48-2.68-6.83-.4-1.34-1.2-2.47-2.12-3.51-1.45-1.64-1.6-3.32-.52-5.26,2.01-3.6,1.91-3.99-1.13-6.87-2.4-2.28-1.72-5.08-1.54-8.05Z"/>
      <path class="cls-1" d="m156.61,77.23c-1.74-2.76-1.88-2.79-4.26-1.08-.9.65-1.86.84-2.88.42-2.61-1.09-5.29-.7-7.94-.37-1.18.15-1.87.17-1.71-1.3.19-1.8-.23-3.32-2.06-4.17-.64-.3-.94-.96-1.01-1.62-.28-2.94-1.68-5.59-2.01-8.53-.21-1.93-1.35-2.27-3.06-1.27-.73.43-1.47,1.3-2.37.35-.82-.87-1.13-2.2-.45-2.98,2.25-2.57,1.55-6.24,3.6-8.88.75-.97.35-2.21-.98-2.55-1.87-.47-2.56-1.73-3.22-3.41-.94-2.42-1.88-4.93-3.96-6.73-.94-.81-1.07-1.97-.97-3.14.1-1.21.07-2.43-.57-3.49-.97-1.61-.94-3.22-.52-5,.61-2.55,1.02-5.15,1.48-7.74.18-1.01.52-1.36,1.68-1.08,13.21,3.17,26.63,5.13,40.06,7.08,14.44,2.1,28.93,3.84,43.42,5.6,4.69.57,9.39,1.06,14.09,1.53,2.53.25,2.44.19,2.21,2.71-.57,6.13-1.05,12.28-1.55,18.42-.75,9.24-1.51,18.48-2.22,27.72-.1,1.25-.64,1.56-1.82,1.5-5.74-.29-11.45-.94-17.15-1.64-9.79-1.2-19.57-2.51-29.36-3.8-4.74-.63-9.48-1.29-14.2-2.04-1.19-.19-1.64.13-1.74,1.27-.12,1.3-.32,2.59-.53,4.22Z"/>
      <path class="cls-1" d="m179.42,248.6c-4.63-.73-9-1.36-13.35-2.11-4.46-.77-4.51-.82-5.32,3.67-.26,1.47-.68,2.06-2.27,1.61-1.43-.4-2.94-.66-4.42-.69-1.68-.03-1.8-.85-1.6-2.17.54-3.54,1.02-7.1,1.53-10.65,1.41-9.76,2.82-19.52,4.23-29.28,1.35-9.41,2.71-18.81,4.02-28.23.19-1.33.57-1.88,2.1-1.62,11.51,1.94,23.13,2.97,34.75,3.98,7.27.63,14.55,1.17,21.82,1.85,2.65.25,2.56-.15,2.09,2.71-1.02,6.08-1.28,12.25-1.86,18.38-.85,8.93-1.61,17.87-2.4,26.81-.42,4.71-.89,9.41-1.19,14.13-.09,1.45-.45,2-1.98,1.85-8.45-.84-16.91-1.6-25.37-2.39-3.63-.34-7.26-.68-10.88-1.09-.75-.08-.59.33-.64.72-.11.82.28,1.51.75,2.52Z"/>
      <path class="cls-1" d="m150.02,250.45c-6.24-.91-12.64-1.83-19.02-2.79-.57-.09-1.14-.36-1.65-.66-11.66-6.71-23.32-13.43-34.96-20.18-.64-.37-1.77-.51-1.58-1.67.18-1.14,1-1.38,2.08-1.53,1.68-.23,2.41-2.62,1.3-3.88-1.25-1.42-.9-4.66.57-5.85,1.45-1.17,1.85-2.94,2.05-4.63.25-2.07,1.29-3.24,3.19-3.86,1.79-.58,2.06-1.63.63-2.79-.77-.62-.99-1.27-.92-2.15.01-.12.05-.26,0-.36-2.28-4.09.78-8.14.08-12.3-.37-2.22.38-4.64,0-6.98-.13-.78.49-.88.87-.54,1.17,1.05,3.23.32,4.05,2.2.31.7,1.39.49,1.82-.21.58-.95,1.32-1.82,1.53-2.99.45-2.47.98-4.92,1.42-7.39.19-1.04.46-1.47,1.74-1.25,15.56,2.64,31.14,5.2,46.72,7.74,1.2.2,1.58.57,1.39,1.84-2.17,14.85-4.28,29.7-6.42,44.56-1.18,8.23-2.39,16.45-3.56,24.67-.11.76-.23,1.33-1.33.97Z"/>
      <path class="cls-1" d="m107.62,181.79c-1.46-2.22-3.78-2.12-5.71-2.66-1.11-.31-1.41.88-1.21,1.87.39,1.98.11,3.96-.03,5.92-.09,1.33.09,2.62.25,3.93.08.65.18,1.44-.64,1.67-.67.19-.81-.55-1.08-.96-13.22-19.72-26.43-39.46-39.66-59.18-.55-.82-.66-1.57-.41-2.52,2.99-11.38,5.95-22.76,8.87-34.15.31-1.22.7-1.59,2.05-1.26,17.25,4.15,34.44,8.56,51.92,11.66,1.56.28,1.06,1.16.92,1.94-1.19,6.28-2.42,12.55-3.65,18.82-3.31,16.94-6.64,33.88-9.92,50.83-.28,1.45-.91,2.67-1.7,4.09Z"/>
      <path class="cls-1" d="m170.78,127.37c7.44.89,14.8,1.82,22.17,2.66,8.38.95,16.74,2.03,25.18,2.4,5.44.24,10.86.76,16.3,1.12,1.3.09,1.71.47,1.65,1.97-.34,7.71-.8,15.41-1.3,23.11-.53,8.18-1.09,16.35-1.57,24.53-.08,1.43-.56,1.72-1.95,1.6-9.77-.86-19.56-1.57-29.33-2.43-12.57-1.11-25.14-2.23-37.62-4.19-1.46-.23-1.57-.85-1.41-2,.9-6.63,1.79-13.27,2.67-19.91,1.15-8.65,2.29-17.3,3.44-25.95.07-.53.21-1.06.22-1.6.02-1.15.47-1.68,1.57-1.31Z"/>
      <path class="cls-1" d="m215.96,131.42c-7.98-.84-15.25-1.54-22.49-2.38-8.43-.98-16.86-2.03-25.28-3.16-5.51-.74-10.99-1.68-16.5-2.46-.91-.13-1.06-.45-.94-1.27,1.85-12.05,3.66-24.11,5.5-36.16.61-4.01,1.3-8.02,1.88-12.04.13-.92.33-1.16,1.32-1.02,11.43,1.59,22.86,3.19,34.3,4.65,8.66,1.1,17.32,2.27,26.06,2.65,1.24.05,1.33.51,1.24,1.51-.93,10.61-1.84,21.21-2.72,31.82-.44,5.3-.85,10.61-1.21,15.92-.09,1.27-.34,2.15-1.16,1.92Z"/>
      <path class="cls-1" d="m55.47,38.05c0,4.29,0,4.26,4.23,4.99,1.15.2,2.18.01,3.31-.22,1.64-.33,3.41.44,4.58,1.42,1.84,1.54,3.79,1.04,5.73,1.07.55,0,.98-.21,1.33.4.63,1.1,1.65,1.11,2.66.75,1.48-.53,2.88-.81,4.52-.52,1.25.22,2.58-.39,3.97-.34,7,.25,13.61,2.41,20.36,3.92.33.08.89.24.92.42.23,1.61,1.77,2.18,2.57,3.33.73,1.06.45,1.99-.2,2.8-2.37,2.95-3.9,6.55-6.84,9.05-1.25,1.07-1.57,2.65-2.41,3.94-.51.79-.16,1.6.59,2,1.63.86,1.79,1.74.75,3.34-2.55,3.91-2.55,8.63-3.73,12.98-.9,3.34-1.61,6.74-2.26,10.14-.29,1.51-.95,1.67-2.29,1.37-12.77-2.87-25.47-5.98-38.09-9.46-7.95-2.19-15.87-4.46-23.73-6.95-2.48-.78-3.62-3.37-2.24-5.58,1.05-1.68,1.79-3.23.56-5.11-.38-.58.18-.98.42-1.43,2.05-3.72,5.2-6.73,6.94-10.65,1.52-3.43,3.12-6.85,4.1-10.48.48-1.78,1.66-3.14,2.42-4.75,1.31-2.78,2.33-5.58,2.7-8.64.15-1.21.75-2.37,1.17-3.55.17-.48.59-.65,1.02-.44,1.77.89,3.75,1.13,5.54,1.99,2.08.99,1.16,2.73,1.39,4.2Z"/>
      <path class="cls-1" d="m151.2,111.91c-.54,3.67-1.02,7.11-1.58,10.53-.2,1.24.05,1.83,1.41,2.01,5.1.69,10.17,1.54,15.27,2.2,1.71.22,2.04.79,1.8,2.51-1.36,9.47-2.55,18.97-3.8,28.45-.84,6.34-1.7,12.68-2.5,19.03-.12.97-.5.95-1.29.82-9.37-1.59-18.74-3.15-28.12-4.7-6.13-1.02-12.27-2.05-18.41-2.99-1.47-.23-1.97-.62-1.64-2.26,3.72-18.75,7.35-37.52,11.01-56.29.18-.94.53-1.87.55-2.81.03-1.75.89-1.79,2.3-1.54,7.77,1.4,15.55,2.69,23.31,4.11.57.1,1.92-.36,1.7.93Z"/>
      <path class="cls-1" d="m138.75,74.79c-.01,2.56.45,2.78,3.01,2.44,2.46-.32,4.98-.66,7.42.37,1.46.62,2.87.34,3.98-.77,1.08-1.07,1.52-.68,2.15.48.73,1.35.83,2.65.59,4.13-1.42,8.97-2.83,17.94-4.14,26.93-.22,1.51-.64,1.8-2.15,1.54-14.67-2.49-29.33-4.99-43.89-8.1-2.69-.57-5.35-1.26-8.03-1.85-1.13-.25-1.54-.71-1.25-1.97,1.58-6.74,3.08-13.5,4.59-20.26.29-1.32,1.05-2.48,1.82-3.44,1.36-1.68.52-2.75-.7-3.55-1.13-.75-.93-1.22-.43-2.25.91-1.88,2.47-3.14,3.73-4.69,2.09-2.56,3.78-5.47,5.49-8.32.61-1.03.23-2.18-.65-3.12-1.21-1.3-1.57-2.58-1.48-4.63.53-11.72,4.76-22.63,6.88-33.99.21-1.13.62-1.35,1.65-1.07,1.5.41,3.01.79,4.54,1.04.98.16,1.13.54.93,1.45-.63,2.98-1.11,5.99-1.78,8.96-.33,1.48-.26,2.86.46,4.17.66,1.2.9,2.44.78,3.79-.13,1.44.2,2.78,1.27,3.78,2.06,1.91,3.01,4.45,3.94,6.95.6,1.6,1.36,2.76,3.03,3.19,1.23.31,1.39.98.68,1.96-.91,1.24-1.38,2.62-1.46,4.17-.06,1.17-.63,2.17-1.33,3.09-.73.96-.96,2.03-.8,3.21.34,2.44,2.19,3.41,4.21,2.05,1.37-.93,1.86-.61,2,.89.26,2.81,1.64,5.36,1.95,8.16.11.95.67,1.62,1.45,2.16,1.55,1.07,1.54,1.09,1.53,3.11Z"/>
      <path class="cls-1" d="m285.66,32.44c4.89,0,9.67,0,14.44,0,.54,0,.88.29,1.23.63.48.46,1.03.55,1.65.3,1.86-.74,2.82-.38,3.75,1.41.23.45.61.83,1.08.86,1.39.1,2.72.51,4.07.74,1.1.19,2.09,0,2.82,1.32.57,1.04,1.83.34,2.55-.14,1.18-.79,2.22-1.05,3.46-.25.52.34,1.17.21,1.76.18.63-.03.91.45,1.34.72,1.33.85,2.31,2.03,3.5,2.99.74.59,1.44-.05,1.64-.97.06-.27-.11-.66.29-.73.3-.05.57.14.73.42,1.06,1.88,3.14,2.31,4.84,3.1,1.4.64,2.81-.54,4.06-1.33.69-.44,1.23-.87,1.97.02.67.81,1.62.45,2.51.3,2.15-.35,4.24-.29,6.18,1.15-.79.8-1.73,1.16-2.67,1.49-4.24,1.49-7.73,3.99-10.38,7.63-1.2,1.65-2.53,3.17-4.18,4.41-1.48,1.12-2.56,2.69-3.68,4.11-1.13,1.42-.47,3.5-.22,5.23.26,1.82-.11,3.02-1.86,3.74-1.86.77-2.43,2.53-3.05,4.22-.34.94.25,1.51.98,1.86.85.4.92.86.59,1.7-.64,1.6-.32,3.29-.23,4.95.03.53.2,1.07.17,1.59-.12,2.28.73,3.89,2.91,4.34,2.03.42,2.9,2.72,5.06,2.72.14,0,.36.34.4.55.37,2.13,2.03,2.91,3.73,3.74,2.17,1.06,2.73,2.42,2.27,4.87-.16.84-.8.56-1.26.58-3.89.11-7.78.18-11.66.26-10.83.21-21.66.4-32.48.67-1.62.04-2.12-.37-2.09-2.05.1-6.22.02-12.45.05-18.68,0-1.66-.23-2.95-2.04-3.74-1.76-.77-1.75-2.12-.19-3.14.72-.47,1.12-1.12,1.15-1.92.1-2.63.02-5.27-1.13-7.71-.61-1.28-.77-2.6-.95-3.96-.57-4.26-.64-8.54-.82-12.82-.04-.87-.47-1.6-1.05-2.23-1.49-1.59-1.83-3.47-1.28-5.49.43-1.59.08-3.3,1.01-4.85.57-.95-.55-1.83-.97-2.76Z"/>
      <path class="cls-1" d="m305.81,150.33c.11.26.17.35.16.36-2.05,2.23-1.3,4.41-.02,6.68.59,1.05,1.73,1.4,2.44,2.32.42.54.75.93.75,1.64.01,8.02.04,16.04.11,24.06.01,1.14-.24,1.45-1.46,1.42-13.04-.36-26.08-.64-39.12-.96-8.91-.22-17.82-.47-26.73-.72-2.21-.06-4.42-.22-6.63-.23-.96,0-1.23-.32-1.16-1.24.82-11.87,1.63-23.74,2.39-35.61.06-1.01.3-1.32,1.35-1.22,10.07,1.01,20.18,1.21,30.29,1.39,11.07.19,22.15.41,33.22.26.67,0,1.07.27,1.36.65.82,1.05,1.69,1.86,3.06,1.19Z"/>
      <path class="cls-1" d="m289.7,113.84c-1.73-2.05-4.29-2.68-6.46-3.67-1.61-.73-4.01-.53-5.82.67-.65.43-1.21.58-1.75,0-.77-.82-2.04-.94-2.72-1.57-1.6-1.5-3.46-1.15-5.19-1.18-10.83-.19-21.65-.62-32.45-1.29-4.65-.29-9.29-.85-13.93-1.25-1.09-.09-1.28-.49-1.18-1.58.84-9.47,1.59-18.94,2.37-28.42.15-1.85.31-3.7.43-5.55.07-1.03.46-1.41,1.58-1.34,8.95.61,17.9,1.2,26.86,1.7,7.17.4,14.34.61,21.51.99,5.2.28,10.41.22,15.62.26.41,0,1.04-.31,1.18.41.1.53-.22.96-.64,1.2-.95.53-2.15.96-1.79,2.31.33,1.25,1.05,2.41,2.38,2.91.89.33,1.16.95,1.16,1.8,0,6.94,0,13.89,0,20.83,0,.18.02.37-.02.54-.81,2.87-.64,2.83-.07,5.5.22,1.02-.39,2.33-.91,3.35-.58,1.14-.84,2.17-.14,3.37Z"/>
      <path class="cls-1" d="m287.86,147.46c-12.57-.12-25.15-.3-37.71-.8-3.94-.16-7.88-.57-11.82-.77-1.56-.08-1.77-.81-1.67-2.17.25-3.22.32-6.45.54-9.67.07-1.01-.24-1.33-1.23-1.39-5.55-.38-11.1-.85-16.65-1.23-1.1-.07-1.32-.4-1.22-1.51.66-7.33,1.24-14.67,1.81-22,.08-.98.23-1.5,1.46-1.33,7.78,1.03,15.61,1.49,23.44,1.79,8.25.32,16.51.6,24.76.89,2.04.07,3.65,1.21,5.21,2.31,1.12.79,1.93.86,3.23.27,2.01-.9,4.21-1.54,6.31.11.54.43,1.27.66,1.94.9,1.05.38,1.93.92,2.46,1.95.16.31.38.75.66.83,2.07.57,1.96,2.36,2.31,3.92.18.81.44,1.59.98,2.28,1.18,1.51,1.59,3.28,1.36,5.17-.09.77-.05,1.57.51,2,2.37,1.85,1.42,4.82,2.46,7.11.1.23-.16.69-.36.98-.89,1.32-1.2,2.41.61,3.35.86.45.53,1.77,1.22,2.64.69.87,1.03,2.03,1.85,2.95.68.77.35,1.48-.94,1.46-3.83-.06-7.67-.02-11.51-.02Z"/>
      <path class="cls-1" d="m281.88,70.54c-12.56-.24-25.11-.86-37.65-1.67-6.39-.41-12.78-.86-19.17-1.17-1.54-.08-1.84-.56-1.71-2.03.87-9.83,1.65-19.67,2.48-29.5.17-1.97.44-3.92.63-5.89.07-.74.3-.96,1.12-.88,12.58,1.12,25.2,1.61,37.81,2.05,5.86.21,11.72.43,17.58.66,1.69.06,2.58,2.05,2.29,3.67-.64,3.59-2.22,7.37.98,10.66.56.58.66,1.35.68,2.16.09,4.35.48,8.67.84,13,.21,2.47,1.78,4.5,1.95,7.02.11,1.58-.19,2.01-1.72,1.93-2.03-.1-4.07-.03-6.11-.03Z"/>
      <path class="cls-1" d="m311.38,229.7c-1.45-.31-2.5-.98-3.53-1.68-1.67-1.13-3.48-1.69-5.44-1.12-8.02,2.32-15.98,1.23-23.94-.36-.93-.19-1.89-.26-2.84-.35-.62-.06-1.25-.08-1.31-.9-.14-2.13-1.7-1.69-2.92-1.5-1.87.29-3.58.37-5.55-.09-2.25-.53-3.55-1.56-4.56-3.44-.41-.76-1.2-.53-1.94-.37-3.44.73-5.67-1.19-5.54-4.71.25-6.82.46-13.64.74-20.45.05-1.3-.06-2-1.72-2.09-8.54-.47-17.08-1.13-25.62-1.67-3.71-.23-3.6-.16-3.09-3.76.25-1.73.87-1.96,2.51-1.81,8.47.78,16.98.78,25.48,1,15.56.41,31.12.88,46.67,1.31,2.99.08,5.99.1,8.99.11,1.02,0,1.54.29,1.48,1.44-.31,5.91,1.18,11.64,1.92,17.44.31,2.46.19,4.9.21,7.35.04,5.15.01,10.3.01,15.65Z"/>
      <path class="cls-1" d="m355.36,198.03c.14-1.12.85-1.75,1.47-2.32.85-.78.81-1.67.39-2.43-.42-.78-.77-1.68-2.17-1.62-12.07.52-24.15.94-36.22,1.37-2.45.09-4.91.05-7.36.18-1.06.06-1.17-.41-1.17-1.26.01-3.47-.01-6.95-.03-10.42-.03-6.47-.14-12.93-.05-19.4.03-1.97-.49-3.38-2.21-4.31-1.48-.8-1.17-2.75-2.47-3.76-.39-.3.72-1.15,1.03-1.85.97-2.19.71-2.62-1.54-2.93-1.47-.2-2.79-1.49-3.24-2.64-.63-1.62-2.19-2.64-2.45-4.41-.05-.34-.77-.6-.41-1.02.2-.23.76-.19,1.16-.19,2.52-.03,5.03-.03,7.55-.05,9.34-.06,18.67-.16,27.98-1.01,1.74-.16,3.87,1.82,3.77,3.58-.1,1.82.21,3.56.7,5.3.48,1.7,1.46,2.85,2.9,3.9,2.54,1.86,5,3.89,5.41,7.42.19,1.71,1.08,2.12,2.65,1.41.91-.4,1.8-.87,2.62.03.77.84.16,1.7-.21,2.48-.59,1.25-1.03,2.52-1.14,3.93-.18,2.24.65,3.64,2.72,4.71,1.87.97,3.41,2.52,5.36,3.47,1.1.53,1.11,1.92,1.25,3.04.1.83.03,1.67.07,2.51.1,2.28.91,3.18,3.2,3.48.47.06.89.09.81.65-.17,1.09-.66,2.15-.22,3.29.01.04-.06.15-.07.15-1.49-.49-1.78,1.19-2.74,1.49-.76.23-1.19.56-.89,1.15.47.91-.05,1.44-.4,2.1-.34.65-1.08,1.18-.28,2.13.19.23-.05,1.64-1.31,1.63-1.43-.02-2.86.11-4.46.18Z"/>
      <path class="cls-1" d="m107.89,47.14c-.34-.76-.45-1-.69-1.52-.07,1.16-.12,2.02-.17,2.99-5.3-1.26-10.53-2.49-15.74-3.76-.88-.21-1.58-.27-2.52.08-1.11.41-2.37-.47-3.65-.39-2.59.16-5.24-.12-7.75.72-.89.3-1.51.55-2.02-.56-.34-.74-1.17-.8-1.89-.52-.77.3-1.49,0-2.2.02-2.57.1-4.24-2.05-6.61-2.37-.57-.08-1.16-.62-1.7-.25-1.62,1.09-3.27.33-4.88.15-1.2-.13-1.91-.79-1.67-2.22.2-1.23.13-2.5.2-3.76.06-.92-.32-1.59-1.03-2.16-1.37-1.08-3.08-1.57-4.3-3-.7-.83-2.15-1.23-3.67-1.05,1.61-1.38,1.76-3.3,2.52-4.88.57-1.19-1.32-.58-1.88-1.17.19-.92,1.08-.91,1.62-1.29.93-.66,1.04-1.43.17-2.01-1-.66-1.03-1.6-1.01-2.5.06-2.2.27-4.41.43-6.61.09-1.24-.45-2.33-.84-3.45-.52-1.49-.5-2.89.37-4.29.44-.71.73-.78,1.31-.18.54.56,1.32.92,1.73,1.55,1.56,2.37,4.04,3.05,6.52,3.72,1.53.41,2.87,1.17,4.21,1.94,1.06.61,1.52,1.47.97,2.71-.38.86-.31,1.72.15,2.58.85,1.59,1.4,1.63,2.43.16.31-.43.67-.86,1.09-1.18.94-.72,1.29-1.49,1.04-2.77-.32-1.67-.62-3.84-.04-5.05,1.14-2.39.77-3.85-.65-5.85-.86-1.21.67-1.02,1.41-.82,5.88,1.59,11.75,3.24,17.64,4.8,8.83,2.34,17.66,4.66,26.53,6.87,1.34.33,1.6.75,1.3,1.99-1.61,6.67-3.2,13.35-4.73,20.04-.97,4.21-2.41,8.35-1.99,13.29Z"/>
      <path class="cls-1" d="m459.8,239.74c-2.29,1.74-2.15,4.01-2.54,6.17-.33,1.84-.38,3.75-1.46,5.5-.69,1.12-.49,2.66.09,3.98.16.36.58.73.18,1.12-.36.35-.79.02-1.19-.05-.99-.18-1.84-.85-2.91-.81-1.79.07-2.43.77-2.24,2.57.06.59.04,1.2.11,1.79.06.5.49.96.06,1.7-.29-2.01-1.54-2.2-3.14-2.08-8.11.6-16.23,1.11-24.34,1.72-1.87.14-3.49.21-3.79-2.21-.03-.26-.27-.55-.5-.72-2.25-1.72-2.14-4.21-2.05-6.61.04-1.15-.02-2.15-.9-2.92-.63-.55-.95-1.35-.54-1.91.91-1.24.36-3.14,1.98-4.02.44-.24.49-.81.15-1.27-1.64-2.25-2.11-5.08-3.81-7.33-.94-1.24-.59-3-1.01-4.5-1.86-6.67-3.58-13.38-5.44-20.04-.39-1.39-.26-1.84,1.32-1.97,7.15-.59,14.26-1.55,21.34-2.67.29-.05.58-.08.98-.14-.43.72-.91,1.27-1.1,1.92-.38,1.23-.25,2.16,1.21,2.88,2.44,1.2,5,2.2,6.24,5.17.7,1.67,2.09,3.38,4.32,3.66.12.02.28.01.34.08,1.49,1.78,3.55,3.02,4.98,4.74,1.36,1.64,2.56,3.26,4.57,4.05.85.33,1.33.82,1.68,1.68.77,1.9.73,4.35,3.33,5.11.41.12.4.81.53,1.27.53,1.79,1.13,3.55,3.51,4.15Z"/>
      <path class="cls-1" d="m339.67,141.54c-1.21-2.88-3.23-2.67-5.6-2.48-11.52.9-23.08.93-34.63.88-2.07,0-2.62-.89-1.65-2.64,1.02-1.84-.4-3.33-.55-4.99-.14-1.45.04-3.3-1.91-4.1-.4-.16-.19-.99-.16-1.53.1-1.86-.12-3.64-1.36-5.14-1.57-1.9-1.11-4.47-2.19-6.53-.08-.15-.02-.41-.13-.51-1.98-2-.42-3.96.13-5.88.28-.96.61-1.69-.19-2.61-.66-.77-.37-1.94-.19-2.8.14-.64,1.26-.39,1.97-.4,14.18-.25,28.36-.48,42.54-.73.78-.01,1.55-.08,2.32-.16,1.05-.11,1.91.03,2.05,1.33.04.37.3.68.67.76,1.01.23.71.72.27,1.25-.41.49-.49,1.08-.46,1.69.11,2.84,1.63,4.89,4.34,5.88.27.1.68.21.74.4.8,2.51,3.12,3.85,4.51,5.89.1.15.25.27.33.42,1.38,2.48-.8,4.26-1.33,6.35-.33,1.29-1.54,1.92-2.98,1.8-.36-.03-.72-.05-1.08-.05-2.29,0-3.22,1.55-2.15,3.59,1.3,2.51.97,4.92-.95,6.9-.46.47-.96.91-1.34,1.44-.34.47-.55,1.03-1.03,1.98Z"/>
      <path class="cls-1" d="m347.65,114.49c2.81-.64,5.51-.46,8.16-.67,5.37-.43,10.75-.66,16.13-.94.49-.03,1.39-.4,1.28.64-.3,2.81,1.66,4.83,2.69,7.06,1.1,2.4.75,4.79,1.23,7.14,1.47,7.26.72,14.68,1.48,21.99.19,1.87.88,3.76-.56,5.51-.44.53-.09,1.32.35,1.83.66.76.83,1.68,1.15,2.57.44,1.23.64,2.26-.64,3.11-.27.18-.52.6-.53.91-.03,1.35-.97,2.08-1.64,3.08-1.08,1.63-1.37,3.84-.77,5.83.57,1.87-.92,3.3-.74,5.03,0,.1-.37.32-.58.34-2.47.2-2.83,1.78-2.53,3.81.03.23,0,.47,0,.7-.61.13-.93-.31-1.34-.51-1.88-.95-3.26-.67-4.58.97-.55.69-.97,1.67-2.11,1.19-1.01-.42-1.29-1.35-1.28-2.37.02-1.38-.02-2.75-.36-4.1-.22-.9-.52-1.86-1.34-2.24-1.96-.92-3.55-2.36-5.36-3.48-2.3-1.42-2.87-2.44-2.13-5.14.27-.97.77-1.87,1.14-2.82.44-1.12.58-2.23-.4-3.16-.93-.88-2.02-.95-3.16-.41-.87.42-1.71.88-1.82-.7-.25-3.49-2.71-5.71-5.21-7.38-3.59-2.4-3.8-5.67-3.54-9.25.12-1.62.93-3,2.17-4.19,2.37-2.28,2.72-5.16,1.22-8.03-.75-1.44-.32-2.12,1.32-2.11,3.55,0,4.24-.49,5.47-3.88.24-.67.55-1.32.84-1.98.75-1.7.58-3.22-.75-4.62-1.1-1.16-2.1-2.4-3.25-3.73Z"/>
      <path class="cls-1" d="m390.93,269.7c.39-1.32.24-2.49.73-3.63.42-.97-.65-1.36-1.34-1.83-.52-.36-1.26-.63-1.17-1.44.12-1,1.02-.68,1.58-.75,8.49-1.02,16.99-2,25.48-3.01.85-.1,1.29.1,1.6.97.93,2.63.99,2.61,3.73,2.42,8.18-.57,16.35-1.13,24.53-1.68,1.2-.08,2.55-.49,2.87,1.42.1.63.83.81,1.49.65.74-.18.87-.76.8-1.4-.12-1.06-.19-2.14-.43-3.18-.36-1.58.64-1.65,1.64-1.45,1.28.26,2.46.9,3.8.96.5.02.6.47.73.89,2.52,7.63,5.36,15.09,10.68,21.32,1.81,2.12,2.97,4.63,3.65,7.32.93,3.66,2.56,6.97,5.1,9.76,3.01,3.31,4.52,7.14,4.38,11.6-.11,3.64.49,7.29-.06,10.93-.36,2.41-1.23,4.49-3.44,5.79-1.9,1.11-3.66.93-5.26-.57-.52-.49-.99-1.05-1.39-1.63-1.91-2.8-4.25-5.17-7.08-7.05-2.08-1.39-3.71-3.19-4.89-5.41-1.36-2.56-3.08-4.86-5.33-6.7-3.14-2.57-3.89-5.58-2-9.21.13-.25.19-.55.31-.92-1.28-.23-2.2.05-2.6,1.3-.15.48-.05,1.23-.71,1.21-.76-.03-1.32-.65-1.39-1.43-.12-1.49-.19-2.99.13-4.47.61-2.72.9-5.4-.27-8.08-.93-2.12-1.76-4.25-4.65-4.12-.45.02-.78-.3-1.02-.65-.59-.86-1.35-1.5-2.29-1.96-.26-.13-.62-.33-.68-.56-.58-2.39-2.82-3.25-4.32-4.79-2.75-2.82-5.29-2.72-8.08.04-1.16,1.14-2.76,1.83-4.15,2.71-1.17.74-2.56,1.04-3.49,2.29-.49.66-1.53.83-2.01-.31-1.15-2.73-3.46-4.2-5.96-5.39-3.46-1.64-7.15-2.29-10.97-2.23-1.31.02-2.44.52-3.57,1.07-1.42.7-2.99.74-4.7,1.17Z"/>
      <path class="cls-1" d="m376.44,79.06c-.04.28,0,.61-.13.84-2.68,4.88-2.66,10.47-4.15,15.65-1.35,4.71-.79,9.16.44,13.72.68,2.5.54,2.47-2.1,2.62-7.17.41-14.33.88-21.5,1.32-.58.04-1.12.16-1.62-.44-.35-.42-.98-.8-1.51-.83-2.14-.15-3.25-1.28-3.77-3.3-.29-1.12-.78-2.12.14-3.19.51-.6.66-1.54-.01-1.94-1.95-1.16-1.81-3.13-1.83-4.84-.02-1.95-.72-3.21-2.38-4.03-1.66-.82-3.48-1.46-3.76-3.69-.03-.21-.24-.52-.41-.56-1.99-.39-3.13-2.27-5.02-2.84-2.31-.69-2.62-1.32-2.75-3.71-.14-2.37-.63-4.71.31-7.05.27-.67-.22-1.32-.87-1.6-1.16-.5-.99-1.16-.54-2.11.53-1.14,1.2-2.05,2.37-2.55,1.9-.82,2.41-2.27,2.11-4.23-.21-1.35-.25-2.75-.2-4.12.04-1.21.84-1.99,2.02-1.6,2.06.67,3.75-.05,5.45-1,1.04-.58,2.07-1.19,3.14-1.73.83-.42,1.3-.27,1.33.83.09,2.75.13,2.74,2.85,3,1.21.12,2.43.32,3.15,1.45,1.31,2.06,3.32,2.64,5.55,2.73,1.7.07,3.33.37,4.86,1.09,1.97.92,4.09.76,6.16.99,3.88.45,5.46,2,5.86,5.86.1,1,.56,1.82,1.18,2.57,1.11,1.32,1.1,2.57-.22,3.76-1.15,1.05-1.79,2.4-2.01,3.92-.11.77-.13,1.65.72,2.05.79.37,1.39-.19,1.86-.73,1.78-2.05,3.99-3.76,5.28-6.28Z"/>
      <path class="cls-1" d="m344.11,237.8c-8.11.23-16.43.46-24.75.72-2.17.07-2.16.11-1.98-2.06.28-3.35-.55-4.77-3.7-5.85-.99-.34-1.25-.81-1.25-1.79.04-5.51-.07-11.02.05-16.53.11-5.19-1.02-10.22-1.73-15.31-.38-2.74-.46-2.67,2.22-2.76,13.4-.45,26.8-.93,40.2-1.39.42-.01.86.05,1.25-.05,1.05-.26,1.31.64,1.75,1.19.49.61-.24.94-.53,1.33-.82,1.09-2.26,2.31-1.69,3.51.53,1.1,2.25.11,3.44.15.48.02.96-.09,1.43-.04.54.05,1.46-.3,1.5.39.04.62.32,1.8-1.02,1.9-.26.02-.74.32-.72.42.43,2.36-2.15,3.95-1.56,6.41.27,1.15-.37,2.24-1.66,2.66-.14.05-.42-.02-.44.03-.25.67.24,1.25.29,1.84.12,1.5-1.08-.14-1.48.49-.37.6-.29,1.27-.4,1.91-.42,2.42-1.32,4.57-3.13,6.31-1.06,1.02-1.67,2.3-1.93,3.77-.2,1.11-.53,2.21-.88,3.28-.54,1.64-.65,3.26-.19,4.94.22.8.39,1.64.44,2.47.1,1.88-.37,2.28-2.25,2.12-.36-.03-.72-.03-1.28-.06Z"/>
      <path class="cls-1" d="m416.09,258.02c-7.9.91-15.56,1.79-23.22,2.68-.95.11-1.9.23-2.85.34-.74.09-1.61-.15-1.84.97-.22,1.08-.15,1.97.84,2.7.53.4,1.8.69,1.44,1.3-.74,1.22.33,3.12-1.66,3.88-.53.2-.76.36-1.09-.05-.73-.92-1.86-1.6-1.58-3.11.23-1.26-1.04-2.1-1.17-3.63-1.22,1.69-1.47,3.36-1.68,5.04-.1.8.07,1.8-1.15,1.89-1.36.1-1.11-1.07-1.22-1.78-1.73-10.96-2.26-21.97-1.71-33.07.38-7.88.33-15.79.34-23.68,0-1.13.63-.8,1.05-.84,4.22-.46,8.45-.87,12.67-1.3,3.33-.34,6.67-.65,9.99-1.05,1.26-.15,1.88.1,2.24,1.49,1.81,7.12,4.01,14.15,5.53,21.32.7,3.3,2.38,6.02,3.71,8.93.99,2.15-.08,3.73-.7,5.43-.58,1.58-.97,2.94.45,4.24.56.51.72,1.15.52,1.95-.43,1.73.45,3.4.33,5.13-.02.32.39.68.75,1.25Z"/>
      <path class="cls-1" d="m525.84,105.82c-5.79,4.57-12.03,7.7-18.78,10.11.46-1.47,1.39-2.73,1.83-4.21.39-1.29.27-1.97-1.15-2.34-1.67-.43-3.27-1.16-4.94-1.6-1.93-.51-3.38-2.28-5.59-2.07-.5.05-.59-.42-.69-.87-.71-3.21-3.43-5.04-6.62-4.4-6.21,1.23-12.4,2.52-18.61,3.76-6.2,1.25-12.41,2.5-18.62,3.68-.51.1-1.44.83-1.67-.12-.2-.83-.84-2.03.1-2.68,2.7-1.86,3.74-5.08,6.12-7.18,1.17-1.03,1.01-1.83-.45-2.59-.67-.35-1.13-.76-1.48-1.45-.84-1.61-.49-2.57,1.2-3.34,1.79-.82,3.47-1.87,5.47-2.17,1.67-.25,3.32-.46,4.82.67.36.27.99.55,1.33.42,2.95-1.17,6.67-.63,8.69-3.89.41-.66.98-1.17,1.72-1.52,1.74-.85,2.07-1.68,1.35-3.43-.33-.8-.79-1.44-.3-2.45.4-.83-.2-1.66-1.17-1.86-1.66-.34-.99-.84-.17-1.45,1.81-1.35,2.84-3.28,3.96-5.19,2.18-3.74,4.5-7.28,9.35-8.14,3.46-.62,6.85-1.65,10.23-2.65,1.53-.45,1.92.17,1.96,1.47.05,1.56-.04,3.1-.15,4.66-.31,4.32,0,8.32,2.39,12.37,2.16,3.67,3.12,8.13,2.74,12.6-.4,4.66.4,9.18,1.68,13.61.53,1.82.76,3.48-.14,5.2-.05.1-.07.23-.11.34-.33.96-.83,2.12.11,2.81.86.63,1.83-.17,2.58-.74,1.75-1.34,3.67-2.2,5.85-2.55,1.39-.22,2.51-1.08,3.66-1.83.96-.63,1.92-1.37,3.52-.96Z"/>
      <path class="cls-1" d="m378.5,216.11c-.2,11.37-.44,22.73-.59,34.1-.07,5.1,1.11,10.09,1.58,15.15.09.95.2,1.9.36,2.85.19,1.17.7,2.49-1.4,2.22-.2-.02-.5.13-.62.3-.88,1.23-1.32.88-1.93-.3-.48-.92-1.44-.82-2.37-.38-.87.41-1.56,1.54-2.85.61-.33-.24-.71.78-1.04,1.23-.79,1.06-1.33,1.51-2.28-.02-1.49-2.38-2.97-4.6-2.07-7.64.33-1.12-.56-1.31-1.55-1.26-5.56.27-11.11.5-16.67.71-.73.03-1.65.41-2.13-.44-.28-.5-.74-1.21.11-1.72.42-.25.53-.63.51-1.07-.09-2,1.31-3.65,1.36-5.63,0-.42.09-.9.48-1.11,1.62-.87,2.24-2.34,2.57-4.02.04-.21.12-.45.27-.61,1.86-2.05,1.86-2.3-.26-4.07-.26-.21-.28-.37-.32-.68-.26-1.83.12-3.85-1.49-5.31-.11-.1-.06-.48.04-.67.96-1.8.49-3.6.04-5.41-.34-1.36-.3-2.7.17-4.05.41-1.18.72-2.4.95-3.63.26-1.35.88-2.47,1.83-3.42,1.67-1.66,2.71-3.63,3.03-5.96.12-.85.49-1.44,1.34-1.72.45-.15,1.12-.31,1.11-.79-.04-1.94,1.34-1.45,2.4-1.52,5.67-.34,11.34-.65,17.02-1.01,2.05-.13,2.51.27,2.52,2.41,0,.96,0,1.91,0,2.87-.03,0-.06,0-.09,0Z"/>
      <path class="cls-1" d="m499.31,175.21c.9,1.07,1.6,1.98-.36,2.06-.7.03-.89.76-1.41,1.02-.49.24-.8.93-1.56.58-.55-.25-1.08-.07-1.34.53-.26.62.05,1.19.36,1.68.38.6.99.41,1.44.12,1.3-.83,3.02-.51,4.25-1.63.34-.31,1.43-.55.98.78-.29.87-.16,1.9.86,1.99.9.08.98-1,1.16-1.74.11-.43-.16-1.14.47-1.2.58-.06.86.54,1.06,1.06.43,1.15.56,2.21-.7,2.97-.53.32-.77.88-.97,1.46-.74,2.21-2.6,3.01-4.68,1.84-.81-.45-1.31-.62-2.15-.07-.47.31-1.24.29-1.91.07-.66-.21-1.42-.15-1.53.73-.12.89.67,1.07,1.31,1.16.77.11,1.56.52,2.24.47,1.98-.14,1.57,1.65,1.32,2.1-.4.72-.98,2.09-2.43,1.33-.63-.33-1.31-.48-1.63.38-.3.82.37,1.11.93,1.49,1.85,1.26,3.11-.11,4.52-.94.41-.24.7-1.07,1.31-.47.57.56-.21.94-.42,1.34-.76,1.46-2.42,1.52-3.69,1.93-1.84.6-3.27,1.96-5.15,2.39-.2.04-.52.39-.5.43.95,1.65-.83,1.83-1.41,2.62-1.47,2.02-2.6,4.17-2.48,6.74.05,1.08-.3,1.34-1.33,1.21-.82-.1-1.83-.24-2.47.13-1.72,1.01-2.86.16-4.16-.78-3.49-2.52-7.05-4.95-10.55-7.46-.82-.59-1.56-.85-2.63-.62-2.81.58-5.65.98-8.48,1.45-.65.11-1.08.21-1.42-.74-.69-1.93-2.55-2.92-4.68-2.75-4.17.33-8.34.72-12.51,1.08-.24.02-.56,0-.69.14-1.89,2.01-4.96,1.66-6.95,3.46-.39.36-.88.31-1.35.38-3.13.47-6.26.96-9.4,1.39-.48.07-1.29.49-1.39-.53-.08-.76-.25-1.57.98-1.67.98-.08,1.4-.89,1.53-1.76.28-1.8,1.28-2.77,3.07-2.94,1.36-.13,2.46-.67,3.42-1.7.76-.82,1.7-1.49,2.86-1.75.84-.18,1.42-.65,1.51-1.55.15-1.39,1.85-1.6,2.15-2.87.02-.09.4-.21.48-.14,1.6,1.26,2.15-.06,2.84-1.11.2-.3.48-.58.89-.51,1.87.31,2.21-1.06,3.07-2.28.9-1.27,1.95-2.37,2.33-3.95.14-.57.74-.51,1.21-.55,10.24-1.07,20.33-3.03,30.45-4.86,7.7-1.39,15.38-2.91,23.07-4.37,1.13-.21,3.22,1.11,3.51,2.25.15.62-.18.8-.69.48-.72-.44-1.48-.41-2.53-.31Z"/>
      <path class="cls-1" d="m368.71,276.56c.82,1.19.45,2.04-.34,2.85-2.05,2.1-1.62,3.97,1.18,4.99.61.22,1.28.28,1.93.38.68.11,1.24.42,1.66.97.42.56.69,1.22.25,1.83-.43.59-1.08.32-1.65.1-1.25-.49-2.19-1.45-3.27-2.19-2.49-1.71-3.79-1.56-5.61.86-.78,1.03-1.36,1.51-2.51.45-1.14-1.05-2.38-.84-3.56.13-1.6,1.31-4.86,1.48-6.51.36-.28-.19-.6-.47-.7-.78-1.24-3.74-4.74-5.02-7.62-6.92-1-.66-2.21-.34-3.12.57-.82.82-.41,1.61.16,2.46-3.03,1.14-5.8.74-8.34-1.08-2.08-1.49-4.3-1.63-6.66-1.02-.58.15-1.12.44-1.7.55-.78.15-1.73,1.04-2.3.29-.45-.58.12-1.75.6-2.27,1.33-1.44,1.31-2.89.84-4.64-.34-1.26-.19-2.74.46-3.85,2.03-3.45,1.72-6.85.47-10.44-.75-2.14-1.54-4.12-3.39-5.55-.79-.61-1.13-1.42-1.16-2.48-.09-3.47-.26-6.93-.47-10.4-.09-1.49.14-2.18,1.96-2.21,8.14-.11,16.27-.43,24.4-.65,2.92-.08,3.63-.06,4.29,3.47.28,1.49.19,3.01,1.7,4.02.34.23,1.23,1.46-.47,1.61-.81.07-1.06.65-.8,1.45.45,1.33-.24,2.31-1.21,3-.98.7-1.44,1.53-1.45,2.7,0,.65-.08,1.32-.59,1.83-.6.58-.85,1.22-.67,2.1.13.61.03,1.35-.54,1.77-.73.54-.61,1.11-.44,1.88.33,1.56.78,2.29,2.74,2.12,5.48-.46,10.99-.55,16.49-.8,1-.05,1.58.03,1.27,1.34-.6,2.58.73,4.64,2.15,6.59.87,1.18,1.18,2.13-.33,3.08-.85.53-1.8,1.38-.88,2.48.87,1.04,1.94.56,2.86-.17.28-.22.53-.47.87-.79Z"/>
      <path class="cls-1" d="m449.51,106.42c.74,3.12.73,3.09,3.74,2.49,12.18-2.46,24.37-4.91,36.55-7.35,2.89-.58,5.01.86,5.66,3.86.29,1.34,1.34,1.45,2.34,1.48,1.29.03,1.41.43.81,1.48-1.25,2.16-1.72,4.55-1.95,7.02-.23,2.41,1.02,3.95,2.79,5.26.53.39,1.08.75,1.64,1.1.91.57,1.09,1.21.25,1.99-.84.78-1.46,1.73-2.05,2.7-.62,1.01-1.41,1.72-2.77,1.58-.86-.09-1.88.21-2.12,1.05-.41,1.43-1.48,1.53-2.59,1.75-11.42,2.26-22.83,4.55-34.25,6.77-2.52.49-5.08.76-7.61,1.2-1.04.18-1.4-.25-1.52-1.18-.77-5.97-2.32-11.81-2.65-17.87-.16-2.87-.54-5.82-1.41-8.62-.15-.48-.15-.75.25-1.05,1.62-1.19,3.23-2.4,4.9-3.65Z"/>
      <path class="cls-1" d="m357.43,210.59c.55-1.09,1.04-2.14.78-3.5-.09-.48-.04-1.88,1.19-2.12.15-.03.38-.22.38-.34.04-1.99,2.25-3.23,2.16-4.92-.11-1.98.88-3.58.98-5.41.08-1.39.61-2.23,2.26-2.32,3.94-.22,7.86-.64,11.8-.99.54-.05,1.38.19,1.31-.76-.1-1.36.74-1.32,1.7-1.43,16.21-1.92,32.54-2.65,48.71-4.91,4.2-.59,8.43-.99,12.65-1.44.51-.05,1.36-.53,1.5.28.1.59.15,1.57-.64,1.91-1,.43-1.42,1.13-1.6,2.16-.11.62-.6,1.03-1.33.91-.06,0-.12,0-.18-.02-1.63-.41-1.82,1.83-2.95,1.77-1.4-.07-2.22.02-3.08,1.36-.53.83-1.46,1.42-1.63,2.54-.08.52-.6.63-.96.67-1.09.15-1.89.81-2.59,1.51-1.15,1.15-2.43,1.8-4.07,1.96-1.09.11-2.01.73-2.53,1.79-.64,1.29-.63,3.09-2.69,3.26-.36.03-.59.64-.5,1.07.46,2.21-1.1,2.22-2.54,2.37-7.97.83-15.94,1.65-23.91,2.48-10.83,1.14-21.7,1.74-32.57,2.25-.51.02-1.06.21-1.66-.16Z"/>
      <path class="cls-1" d="m404.1,121.65c-.42-1.23.37-1.65,1.64-1.8,3.32-.39,6.64-.82,9.96-1.26,1.32-.17,2.47.14,3.52.94,2.84,2.15,5.7,1.7,8.99.74,4.33-1.26,7.22-4.4,10.72-6.73.79-.53,1.45-1.25,2.21-1.83,1.41-1.09,2.39-.76,2.55,1.01.31,3.45,1.37,6.8,1.21,10.31-.04.93.28,1.88.45,2.82.17.94.31,1.84-.2,2.78-.59,1.09-.45,2.33-.26,3.52.52,3.3-.27,6.42-1.33,9.48-.38,1.11-1.13,2.04-2.29,2.38-2.8.82-4.36,2.57-4.47,5.54-.03.75-.44,1.23-1.24,1.25-2.16.06-2.65,1.49-2.68,3.28-.02,1.45-.08,2.89-1.19,4.01-.45.46-.92,1.05-1.55.15-.3-.43-.82-.51-1.28-.56-.91-.1-1.3-.53-1.51-1.44-.35-1.5-1-1.71-2.06-.66-1.13,1.12-2.26,1.8-3.83.95-.05-.03-.13-.05-.17-.03-2.09,1.13-3.96-.56-5.96-.48-.95.04-1.6-.23-1.93-1.2-.36-1.05-1.4-1.32-2.2-1.9-.92-.67-1.5-.85-2.53-.32-.61.32-1.2-.09-1.29-.97-.71-6.66-1.44-13.31-2.17-19.97-.36-3.27-.72-6.53-1.11-10.04Z"/>
      <path class="cls-1" d="m385.7,119.75c1.7-1.53,2.22-3.28,2.47-5.14.19-1.43.57-2.81,1.06-4.16.92-2.51.62-4.91-1.03-6.95-2.37-2.92-3.37-6.26-3.66-9.92-.05-.6-.11-1.18.05-1.77.77-2.94,1.74-5.82,1.73-8.93,0-1.21.95-2.16,1.71-3.08q1.49-1.81,2.72.06c.34.52.7,1.03,1.4.92.77-.11,1.11-.73,1.19-1.4.17-1.42.25-2.85.34-4.28.04-.61.02-1.3.63-1.58,1.67-.78,1.68-2.21,1.5-3.67-.19-1.58.48-2.1,1.95-1.85,4.42.75,8.42,2.6,12.28,4.79.34.2,1.05.53.51,1.06-1.21,1.19-.31,2.06.35,2.93,1.5,1.96,1.62,5.68.14,7.55-.38.48-.7,1.02-.73,1.61-.05,1.24-.62,2.09-1.57,2.86-1.47,1.18-1.11,2.77-.68,4.29.3,1.06,1.15,1.23,2.13,1.2,1.62-.05,2.53-.94,2.93-2.42.38-1.43,1.01-2.69,2.23-3.57,1.53-1.11,3.16-.74,3.77,1.04,1.37,4,2.61,8.04,3.86,12.08.17.55.2,1.19.11,1.77-.1.7-.24,1.45-1.37.93-1.16-.53-1.7.28-1.83,1.27-.24,1.86-.66,3.61-2.02,5.03-.32.34-.47,1.02-.43,1.51.2,2.26-2.34,3.33-2.35,5.49,0,.08-.64.17-.99.22-3.02.43-6.03.91-9.06,1.24-1.39.15-2.64-.72-4.17-.51-4.2.6-8.44.94-12.66,1.35-.71.07-1.43,0-2.52,0Z"/>
      <path class="cls-1" d="m392.77,168.48c1.06,1.74,2.68,1.23,4.12,1.29.38.02.74-.29.81-.62.36-1.62,1.14-2.97,2.15-4.3.54-.72.82-1.62,1.61-2.24,1.04-.8.92-1.97.42-3.41,2.32.94,3.65-.99,5.48-1.37.82-.17,1.08-1.03.39-1.67-.57-.53-.09-1.28-.62-1.78-.22-.21.09-.57.38-.69,1.6-.67,4.21.33,5.08,1.96.29.55.55,1.13,1.2,1.22,1.62.22,3.32.16,4.57,1.5.09.1.43.14.5.06,1.5-1.53,3.08-.47,4.67-.25,1.21.16,1.46-1.52,2.71-1.7.24,1.24.87,2.16,2.38,2.23.79.04,1.23.62.98,1.38-.92,2.79.73,4.57,2.46,6.25,1.24,1.21,2.66,2.22,3.97,3.36.57.49.84.96.16,1.74-1.02,1.18-1.97,2.4-3.3,3.26-.91.59-1.62,1.34-2.18,2.32-2.09,3.71-5.17,6.14-9.49,6.66-9.33,1.13-18.68,1.95-28.05,2.62-4.83.35-9.64,1-14.46,1.52-.8.09-1.59.2-1.47,1.33.06.54-.27.72-.76.76-3.1.25-6.2.51-9.3.76-.42.03-1.05-.04-.77-.6.56-1.14-.39-2.34.29-3.47.24-.4.18-1.1.01-1.58-.38-1.06.31-1.56.93-2.09.7-.6,1.47-.63,2.34-.25.98.43,1.84,1.91,2.93,1.14.88-.63.25-2.02.18-3.07-.08-1.17.51-1.64,1.54-1.76,1.11-.13,1.77-.67,1.77-1.85,0-1.29.34-2.91,1.27-3.31,1.77-.77,3.69-2.05,5.8-.99,1.42.71,2.47.54,3.41-.74.39-.54,1.03-.99,1.71-.75,1.97.71,2.91-.33,3.6-1.92.12-.27.29-.51.56-.96Z"/>
      <path class="cls-1" d="m476.83,140.08c.98.14,1.8.24,1.92,1.49.07.75.87,1.09,1.63,1.18.59.07,1.05.26,1.58.63,1.57,1.11,2.1,2.19.94,3.98-.6.92-.45,2.2-.44,3.34,0,.61.39,1.2.93,1.11,2.24-.37,3.79,1.64,6,1.53,1.6-.08,2.6,1.61,4.11,2.02-.36,1.18.37,2.23.4,3.35,0,.37-.04.76.26.99.93.7,1.09,1.19-.18,1.72-.45.18-.3.82-.08,1.3.39.85.72,1.72,1.09,2.62-.95.33-2.3-1.02-2.69.49-.31,1.22.86,2.02,1.74,2.72,1.1.88,2.21.52,3.33-.11.68-.39,1.42-1.12,2.27-.39.86.73.57,1.75.49,2.69-.1,1.14-1.11.99-1.78,1.12-16.09,3.07-32.15,6.3-48.37,8.59-7.45,1.06-14.97,1.69-22.51,2.52.07-.21.08-.42.19-.51,2.8-2.3,4.1-5.97,7.29-7.93.88-.54,4.56-1.43,5.51-1.08,1.5.56,3.01.31,4.39-.25,2.98-1.22,5.92-2.56,8.83-3.94,1.47-.7,2.15-2,2.25-3.63.1-1.64.51-3.18,1.46-4.55,1.1-1.58,1.46-3.4,1.62-5.25.11-1.3.63-1.96,2.03-1.89,2.15.11,3.51-.96,4.09-3.02.3-1.07.72-2.07,1.74-2.61,2.32-1.22,3.15-3.27,3.46-5.72.39-3.12.75-3.24,3.25-1.32.1.07.18.18.28.22.74.3,1.1,1.54,2.04,1.13.92-.41.77-1.52.93-2.53Z"/>
      <path class="cls-1" d="m406.47,157.02c-1.66.37-2.94,1.57-4.73,1.43-.74-.06-1.12.9-.78,1.67.35.8.12,1.33-.42,1.92-1.53,1.65-2.88,3.45-3.51,5.65-.18.62-.23,1.21-1.08,1-.71-.18-1.8.48-1.99-.88-.08-.57-.29-1.13-.89-1.2-.67-.08-.76.66-1.06,1.06-.36.47-.67,1-.9,1.55-.44,1.02-1.05,1.52-2.23,1.13-.78-.26-1.68-.09-2.17.52-1.01,1.28-2,1.4-3.52.8-1.32-.53-2.82-.24-4.15.53-.54.31-1.28.7-1.86.27-.66-.48-.48-1.35-.29-2.01.4-1.45-.07-3.31,1.91-4.09.31-.12.38-.96.49-1.47.1-.46-.07-1.02.34-1.35,2.74-2.18.89-4.43-.02-6.53-.4-.91-.73-1.53-.04-2.38.6-.75.6-1.69.45-2.58-.72-4.27-.89-8.57-.78-12.88.11-4.28-.81-8.44-1.16-12.67-.05-.6-.09-1.19-.17-1.78-.13-1.01.23-1.41,1.28-1.25,1.44.21,2.69-.31,3.84-1.17,1.13-.84,2.45-1.24,3.83-1.38,4.7-.48,9.4-.92,14.1-1.41,1.1-.11,1.9-.16,2.05,1.36,1.06,10.29,2.2,20.57,3.31,30.85.19,1.77-.9,3.55.15,5.3Z"/>
      <path class="cls-1" d="m557.3,45.32c-.12,1.51-1.03,2.63-2.11,3.59-1.38,1.24-2.9,2.33-4.24,3.61-1.8,1.71-4.05,1.54-6.23,1.76-2.36.24-2.87.82-2.9,3.16-.01.78.03,1.56-.01,2.33-.08,1.44-.69,2.57-2.19,2.92-4.18.97-5.91,4.15-7.12,7.8-.43,1.3-.71,2.65-1.12,3.96-.38,1.21-1.07,1.21-1.73.24-.43-.63-.77-1.35-1.01-2.08-2.32-7.09-4.61-14.2-6.91-21.3-.48-1.47-.47-1.46.97-1.24.27.04.78-.06.8-.16.18-.99,1.6-1.5.9-2.87-.63-1.24,0-2.46.78-3.5,1.31-1.75,1.67-3.53.37-5.46-.71-1.05-.51-2.2-.1-3.27.52-1.37.66-2.77.64-4.22-.05-3.95,1.95-7.34,3.12-10.94.42-1.29,1.28-.97,2.05-.17,1.34,1.38,2.64,1.24,4.1.09,3.06-2.4,6.81-1.43,7.91,2.36.98,3.37,2.5,6.59,2.91,10.12.25,2.21,1.13,4,3.44,4.8,1.15.4,1.85,1.49,2.2,2.45.63,1.76,1.86,2.7,3.39,3.48,1.03.52,1.97,1.17,2.07,2.54Z"/>
      <path class="cls-1" d="m450.32,200.01c.74-.09,1.29-.07,1.69.55.23.36.65.53,1.11.37,1.41-.51,1.96.5,2,1.48.06,1.5.92,1.27,1.81,1.13,3.07-.49,6.14-.97,9.19-1.52.71-.13,1.24-.05,1.83.37,3.8,2.7,7.62,5.37,11.46,8.03.71.49.87.82.11,1.44-2.65,2.16-3.63,5.03-3.58,8.39.02,1.54-1.1,2.61-2.48,3.01-.91.27-1.35.56-1.41,1.48-.07,1.02-.65,1.68-1.51,2.27-1.42.96-1.84,2.89-3.48,3.74-.73.38-1.3.94-2.25.88-1.05-.07-1.66.42-1,1.53.27.45.51.89.21,1.31-.37.52-.96.36-1.48.2-.47-.14-.93-.35-1.28.17-.28.42-.11.81.17,1.14,1.02,1.21-.35,1.49-.84,2.03-.65.73-1.42.52-2.03-.11-.28-.29-.46-.7-.63-1.08-.74-1.69-.97-3.55-3.1-4.49-.8-.35-1.01-2.19-1.35-3.38-.37-1.27-1.11-1.99-2.35-2.46-1.72-.64-2.75-2.06-3.91-3.47-1.66-2.02-3.6-4.06-5.87-5.24-2-1.04-3.39-2.3-4.34-4.16-.74-1.46-1.71-2.63-3.23-3.17-1.24-.45-2.05-1.56-3.39-1.9-.77-.2-.5-1.23-.08-1.67,1.46-1.51,2.19-4.02,4.98-3.8.16.01.37-.09.49-.2,2.97-2.6,6.72-2.01,10.2-2.51,1.48-.21,2.98-.26,4.34-.38Z"/>
      <path class="cls-1" d="m446.07,130.41c.5,2.73,1.11,5.45,1.46,8.19.17,1.36.77,1.51,1.88,1.33,2.48-.4,4.98-.65,7.44-1.16,1.45-.3,1.69.38,1.67,1.48-.01.84-.13,1.67-.16,2.51-.03.68.04,1.38.83,1.61.78.22,1.2-.37,1.6-.9.21-.28.47-.6.53-.93.38-2.13,2.91-2.16,3.76-3.87.22-.44.74.14,1.08.29,1.09.51,1.97.27,2.71-.63,1.19-1.45,2.5-2.09,4.48-1.35,2.11.79,2.14,2.41,2.31,4.34-1.14-.76-2.08-1.49-3.12-2.05-1.51-.82-2.51-.34-2.93,1.34-.19.75-.29,1.53-.4,2.3-.27,1.87-1,3.43-2.75,4.36-1.24.66-1.93,1.76-2.28,3.08-.46,1.74-1.48,2.64-3.37,2.51-1.75-.12-2.67.76-2.8,2.52-.16,2.12-.76,4.09-1.97,5.88-.9,1.33-1.03,2.92-1.18,4.46-.11,1.11-.59,2.02-1.55,2.47-3.13,1.46-6.15,3.18-9.49,4.18-2,.6-3.74.16-5.05-1.36-1.69-1.97-3.68-3.58-5.66-5.22-.68-.56-1.29-1.26-1.79-1.99-1.37-2-1.26-2.86.61-4.39,1.6-1.31,2.06-3.02,2.04-4.94-.02-1.57.31-2.66,2.24-2.69,1.25-.02,1.66-1.12,1.72-2.17.13-2.31,1.2-3.76,3.46-4.44,1.79-.54,2.86-1.9,3.42-3.65.96-3.04,1.7-6.1,1.18-9.33-.09-.57-.01-1.18-.01-1.77.04,0,.08,0,.12-.01Z"/>
      <path class="cls-1" d="m366.64,48.86c-2.15,1.6-3.67,3.52-4.25,6.1-.17.75-.52,1.6.28,2.14.73.5,1.35-.1,1.95-.47,2.98-1.85,4.26-1.53,6.08,1.52,1.65,2.76,6.35,3.37,9.84,1.21,1.52-.94,2.93-2.12,4.81-2.25,2.23-.15,4.37-.58,6.37-1.62.98-.51,1.2.01,1.26.93.15,2.12.86,2.63,3.03,2.36.47-.06.95-.11,1.42-.22,2.97-.65,3.03-.66,3.78,2.17.3,1.14,1.19,1.69,2.1,2.48-.97.44-1.79.23-2.59.14-1.4-.17-2.73-.31-3.69,1.1-.53.78-1.22.28-1.71-.11-2.03-1.63-3.96-1.74-5.88.2-.63.63-1.5.68-2.36.65-.78-.02-1.55-.02-2.29.31-1.03.46-1.57,1.62-2.46,1.98-.58.24-1.62-.55-2.59-.38-1.13.2-1.29,1.1-1.68,2.14-.26-.79.13-1.86-.87-1.92-1-.06-.92.91-1.12,1.55-.84,2.69-2.47,5.02-3.53,7.87-.92-1.12-1.79-1.99-1.85-3.42-.16-3.5-2.39-6.22-5.87-6.28-4.74-.09-9-2.38-13.69-2.53-1.98-.07-2.78-1.83-3.94-3.07,2.25-1.81,4.41-3.55,7.29-4.17,2.07-.44,3.48-2.07,4.95-3.45,1.3-1.22,2.74-2.29,3.78-3.81.75-1.09,2.03-1.38,3.41-1.14Z"/>
      <path class="cls-1" d="m518.12,84.25c-1.39.23-1.79-.47-1.93-1.71-.47-4.14-1.21-8.27-.07-12.42.12-.45.15-.97.06-1.42-.5-2.42.15-4.4,1.85-6.22,1.6-1.71,1.46-3.82.7-5.9-.57-1.54-.99-3.09-.22-4.69.31-.65.65-1.42,1.48-1.38.78.04.67.91.84,1.42,2.25,6.86,4.44,13.74,6.68,20.6.52,1.59,1.02,3.18,2.74,4.01.86.42.44,1.24.19,1.89-.64,1.62-2.06,2.45-3.44,3.28-2.72,1.65-5.84,1.99-8.86,2.55Z"/>
      <path class="cls-1" d="m518.12,59.1c.14,1.37-.56,2.42-1.44,3.34-1.49,1.55-1.93,3.37-1.62,5.46.1.65.23,1.36.05,1.96-1.36,4.59-.33,9.14.18,13.69.11.98-.05,1.28-.96,1.38-.71.07-1.41.25-2.12.37-2.52.44-2.55.45-3.22-2.11-.8-3.05-1.63-5.99-3.37-8.78-1.74-2.79-1.31-6.25-1-9.48.18-1.91.4-3.82-.04-5.71-.17-.72-.03-1.06.77-1.27,3.53-.9,7.04-1.86,10.55-2.83.86-.24,1.33-.11,1.5.86.19,1.05.81,2,.72,3.13Z"/>
      <path class="cls-1" d="m472.94,135.66c5.08-1.01,9.82-1.96,14.56-2.91,1.58-.32,3.17-.59,4.74-.98,1.2-.3,1.8-.06,2.15,1.26,1.09,4.09,2.44,8.12,3.48,12.22.38,1.51,1.09,1.76,2.38,1.49.82-.17,1.66-.21,2.48-.41,1.45-.35,1.2.31,1.01,1.33-.48,2.63-2.26,3.83-4.55,4.63-1.12.4-.97-.62-.98-.98-.1-2.14-.91-2.88-3.1-2.15-.92.31-1.73-.67-1.27-1.53.73-1.38.29-2.52-.1-3.78-.56-1.79-.48-3.75-1.38-5.46-.2-.38.06-.68.2-1,.24-.54.56-1.08.67-1.65.13-.68.5-1.62-.1-2.04-.71-.51-1.02.55-1.53.89-.9.59-1.82,1.14-2.42,2.1-.6.96-1.04,1.9-.45,3.01.62,1.16.01,2.35.07,3.53.16,3.22,2.1,5.65,3.53,8.37-.23.08-.46.22-.52.16-1.54-1.3-3.85-.71-5.33-2.22-.81-.82-1.62-.12-2.4.32-.35-.93.26-1.56.69-2.13.93-1.25.75-2.44-.25-3.38-1.17-1.1-2.01-2.77-4.01-2.69-.2,0-.59-.21-.58-.32.06-2.06-1.66-2-2.92-2.46-.28-.1-.6-.13-.68-.48-.35-1.6-1.75-1.98-3.38-2.76Z"/>
      <path class="cls-1" d="m505.15,137.67c-.33-1.67-1.3-2.3-2.82-2.42-1.77-.14-3.16-.94-4.09-2.52-1.3-2.19-1.12-2.59.71-4.37,1.44-1.4,2.6-3.09,3.81-4.71.52-.7.39-1.49-.27-2.1-.39-.37-.82-.69-1.27-.99-3.69-2.52-4.12-3.59-3.12-7.98,1-4.42,1.51-4.72,5.72-3.31.91.3,1.8.69,2.73.86,1.56.28,1.54,1.13.98,2.27-.45.91-.93,1.81-1.34,2.73-.7,1.57-.28,2.84,1.33,3.46,1.29.5,1.62,1.34,1.65,2.62.09,3.62-.23,7.11-1.89,10.45-.94,1.89-1.43,4.01-2.12,6.03Z"/>
      <path class="cls-1" d="m533.12,82.26c-1.02,1.13-2.25,2.06-2.4,3.71-.14,1.65.41,2.23,2.03,1.83.73-.18,1.12-.1,1.36.61.34,1,1.23,1.6,1.82,2.4,1.15,1.57,2.51,2.49,4.6,2.14-.98.52-1.67,1.26-2.5,1.87-.42-.64-.36-1.77-1.45-1.56-1.69.32-2.47,1.55-2.84,3.29-.97-1.87-3.08-2.61-3.97-4.47-.53-1.09-1.35-1.27-2.38-.92-5.28,1.8-10.8,2.55-16.23,3.71-1.21.26-1.56-.27-1.54-1.25.04-2.03.18-4.06.24-6.09.02-.8.57-.74,1.09-.87,4.18-1.02,8.5-1.32,12.67-2.42,2.31-.61,4.39-1.6,6.13-3.21.77-.71,1.17-.99,1.77.16.23.45.96.65,1.62,1.05Z"/>
      <path class="cls-1" d="m511.6,108.49c1.31-3.35-.87-6.17-1.24-9.27-.35-3.02-.52-2.97,2.55-3.57,3.45-.68,6.91-1.37,10.33-2.18,1.03-.25,1.4.05,1.67.92.42,1.36.84,2.73,1.37,4.06.56,1.41-.31,2.51-1.7,3.07-2.44.98-4.98,1.65-7.4,2.59-1.5.58-2.62,2.14-3.88,3.29-.48.44-.85,1-1.71,1.08Z"/>
      <path class="cls-1" d="m496.29,129.14c.06,5,2.56,8.69,5.97,11.92.39.37.88.65,1.18,1.08,1.17,1.67.62,2.92-1.36,3.18q-2.92.39-3.74-2.42c-1.08-3.72-2.16-7.44-3.25-11.15-.35-1.21-.31-2.21,1.2-2.61Z"/>
      <path class="cls-1" d="m527.45,100.39c.4-2.33-1.17-4-1.37-6.01-.05-.49-.98-1.12-.01-1.48.85-.31,2.15-1.05,2.64-.26.88,1.44,2.37,2.18,3.28,3.51.46.67.66,1.16-.42,1.29-.73.09-1.13.63-1.48,1.2-.56.91-1.36,1.45-2.63,1.74Z"/>
      <path class="cls-1" d="m464.12,137.43c-1.22,2.14-3.76,2.97-4.21,5.61-.14-.06-.29-.11-.43-.17,0-1.32,0-2.64,0-3.96,0-.55.37-.67.81-.75,1.28-.24,2.55-.49,3.83-.73Z"/>
      <path class="cls-1" d="m499.48,159.72c-.23-1.08.02-1.93.48-2.72.67-1.15,1.38-2.27.69-3.68-.28-.57.14-.72.6-.8.46-.08.63.13.66.58.05.98-.09,1.89-.56,2.77-.64,1.2-1.19,2.45-1.87,3.85Z"/>
      <g>
        <path class="cls-1" d="m211.06,332.65c.3-1.48-.1-2.98-1.21-4.42-1.19-1.56-.98-2.51.63-3.54,1.19-.77,1.54-1.66,1.1-3.03-.33-1.05-1.07-2.53-.14-3.18.94-.67,1.99.63,2.87,1.25,1.15.8,2.34,1.43,3.7,1.72,2.22.46,3.82,1.62,4.48,3.87.34,1.16,1.12,1.97,2.14,2.54,2.4,1.34,1.25,3.5-.4,4.24-.91.41-1.95.53-2.92.82-2.46.74-4.77,1.67-5.53,4.51-.21.77-.69,1.04-1.49.81-2.42-.7-3.44-2.17-3.27-4.77.01-.18.02-.36.04-.81Z"/>
        <path class="cls-1" d="m204.55,313.99c-.95.02-1.33-.4-1.31-.98.05-1.29-.67-1.73-1.77-2.05-.81-.24-1.43-.88-1.77-1.68-.34-.8,0-1.39.67-1.83.69-.44,1.34-.27,1.69.39.65,1.22,1.42,1.63,2.75.97.65-.32,4.35,1.53,4.66,2.18.22.45.15.93-.26,1.1-1.63.67-3.35,1.12-4.66,1.91Z"/>
        <path class="cls-1" d="m181.99,301.94c-1.19,1.65-1.93,1.6-2.76.12-.26-.46-.7-.83-.94-1.3-.34-.69-1.61-1.77.55-1.69.47.02.66-.41.89-.77.76-1.17,2.16-1.32,2.86-.2.99,1.59,1.95,3.18,3.26,4.54.66.69.16.87-.43,1.04-1.52.43-2.89.52-3.43-1.74Z"/>
        <path class="cls-1" d="m160.11,289.42c.93.53,2.9-.52,3.14,1.53.18,1.61-1.59,3.34-2.98,3.28-1.68-.07-3.54-1.24-3.48-2.2.07-1.08,2-2.69,3.33-2.61Z"/>
        <path class="cls-1" d="m196.82,306.73c-1.51-.17-2.97-.55-4.47-.25-.63.13-1.3.18-1.3-.68,0-.71.49-1.26,1.26-1.22,1,.05,1.99.26,3,.34.89.07,1.78.05,2.67.1.45.02,1.06-.13,1.18.5.13.68-.47.92-.98,1.07-.44.13-.94.11-1.37.15Z"/>
        <path class="cls-1" d="m194.38,309.13c1.59-.15,3.19-.74,3.56.86.32,1.41-.9,2.24-2.23,1.44-.38-.23-.55-1.44-1.33-2.31Z"/>
        <path class="cls-1" d="m152.07,292.31c.47.93.62,1.67-.53,1.99-.39.11-.73.35-.91.78-.13.31-.05,1.02-.71.61-.39-.24-.28-.72-.11-1.13.43-1.06,1.72-1.22,2.26-2.24Z"/>
        <path class="cls-1" d="m200.06,315.37c-.6-.02-1.15-.13-1-.76.21-.9,1.03-1.06,1.82-1.13.44-.04.9.07.79.66-.16.93-.86,1.19-1.61,1.23Z"/>
      </g>
      <path class="cls-1" d="m465.5,137.15c1.07-.13,1.89-.61,2.82-.39-.73,1.74-.94,1.78-2.82.39Z"/>
      <g>
        <path class="cls-1" d="m125.68,324.5c.24-2.21-1.97-4.15.27-6.14.52-.47.65-.96.2-1.56-.77-1.05-1.54-2.1-2.7-2.96-.53,1.69,1.74,3.03.16,4.77-1.23-2.33-1.52-5.05-3.43-6.92-.34.31-.01.78-.27,1.27-1.04-.51-1.9-.46-2.82.56-.71.8-1.93.41-2.82-.12-2.45-1.46-4.51-3.58-7.41-4.26-.41-.1-.38-.21-.22-1.59-2.11,1.11-4.09.66-6.07-.17-1.14-.48-2.34-.37-3.53-.11-1.69.37-3.19.24-4.76-.8-1.61-1.06-3.6-1.46-5.14-2.77-.6-.51-1.4-.19-1.94.38-.63.67-.29,1.33.18,1.93.22.28.49.52.75.77.48.46.65,1.03.42,1.64-.24.64-.86.99-1.44.85-2.86-.68-4.8.43-6.24,2.85-.42.7-1.33.78-2.08.95-1.98.45-2.26.14-1.72-1.78.03-.11.05-.23.07-.35.3-2.93.64-5.85,3.77-7.61-1.5-.74-2.37-.03-3.06.73-1.04,1.15-2.05,2.37-2.81,3.71-.77,1.37-1.39,2.74-2.97,3.41-.66.28-.96.91-.59,1.65.36.72,1.27,1.33.82,2.24-.62,1.23-1.38,2.64-2.61,3.12-3.9,1.53-6.33,5.28-10.35,6.59-.81.26-1.28,1.03-1.71,1.78-.76,1.34-1.9,2.11-3.49,2.16-1.45.05-2.84.35-4.15,1.01-.11.05-.24.15-.33.12-2.44-.8-4.31.93-6.12,1.84-2.04,1.02-4.07.86-6.09,1.28-.44.09-1.02.31-1.29-.23-.31-.62.2-1.01.64-1.31,1.09-.76,2.25-1.4,3.65-1.3,2.14.15,3.86-.73,5.25-2.25.99-1.08,2.08-1.53,3.52-1.18.34.08.83.16,1.05-.01,2-1.62,4.68-2.17,6.47-4.1.49-.52.96-1.06,1.51-1.52.65-.56,1.23-1.17,1.54-1.96.37-.94.47-2,.92-2.89.4-.81,1.11-1.47,1.86-2.41-1.64.04-3.1,2-4.35-.27-.29.74-.5,1.29-.7,1.83-.74.02-.78-.55-.87-.97-.25-1.18-1.29-1.18-2.1-1.64-1.03-.59-1.57-.51-2.33.36-.65.75-1.72.66-2.52.29-.91-.42-.47-1.26-.32-2.04.23-1.22.3-2.46.57-3.69.35-1.57-.89-2.41-2.42-1.86-1.45.52-2.53.22-3.2-1.31-.67-1.54-2.02-2.88-1.18-4.81.09-.2-.11-.6-.28-.82-2.49-3.17-.92-5.09,1.81-7.73.62-.6,1.11-1.21,1.55-1.92,1.08-1.79,2.09-1.95,3.68-.61,1.13.96,1.71.15,1.96-.74.31-1.12.81-1.3,1.6-.6.88.77,1.72.88,2.52.04.8-.84,1.54-1.85.83-3.04-.46-.78-.78-1.3.2-1.86.34-.19.44-.6.21-.94-.21-.33-.58-.42-.96-.31-.52.15-1.04.29-1.53.5-3.34,1.44-6.18-.15-8.96-1.62-1.23-.65-1.41-1.94-.44-3.07.87-1.01.37-1.49-.58-1.82-.65-.23-1.33-.47-1.34-1.24,0-.86.86-.8,1.4-1.12,1.92-1.14,3.92-1.96,6.15-2.24,1.84-.23,2.12-.05,1.83,1.8-.13.84.16,1.32.88,1.5,1.21.3,2.84.7,3.54-.19.84-1.07-.13-2.41-1.13-3.25-1.45-1.21-2.35-2.68-2.65-4.54-.16-.99-.68-1.76-1.43-2.42-.67-.59-1.29-1.23-1.6-2.12-.71-2.05.02-3.1,2.17-3.04,3.1.08,3.55-.19,4.81-3.19.58-1.38,1.7-1.77,3.01-2.39,2.99-1.4,6.49-1.51,9.14-3.64.9-.72,1.74-.74,2.21.29.69,1.51,1.91,1.8,3.33,1.9.9.06,1.89.07,2.44.89.99,1.47,2.29,1.8,3.9,1.32,1.02-.31,1.86.06,2.69.62.49.33,1.04.84,1.55.83,1.96-.04,3.9-.23,5.74.75.23.12.69-.1,1-.24,2.83-1.29,5.76.22,6.21,3.27,2.19,15.08,4.36,30.17,6.54,45.25.08.55-.15,1.57.52,1.52,1.09-.09,2.32.27,3.3-.43.87-.62,1.62-1.37,1.37.57-.04.33.24.57.52.66,2.09.64,3.21,2.42,4.54,3.92.55.62.81.52,1.23.07.74-.8,1.51-1.61,1.45-2.79-.06-1.19.8-1.5,1.61-1.85.94-.4,1.31.45,1.65.98.64,1.01,1.51,1.64,2.57,2.12,1.51.69,2.59,1.81,3.58,3.16,1.7,2.3,3.9,4.18,5.61,6.5.93,1.26,2.55,1.22,3.98,1.26,1.76.04,2.8.81,3.13,2.57.22,1.17.67,2.3.65,3.51-.01,1.11-.55,1.67-1.7,1.52-1.69-.22-3.13-.54-3.93-2.48-.87-2.09-3.16-2.78-5.05-3.73-1.02-.51-1.47.36-1.68,1.26-.16.66.29,1.46-.82,2.22Z"/>
        <path class="cls-1" d="m74.71,317.76c-.11.73-.69.5-1.1.52-.5.03-1.02.11-1.22.58-.31.71.59.45.67.67.28.72.56,1.76.12,2.22-.93.98-2.16,1.67-3.28,2.46-.13.09-.44.03-.49.12-.88,1.86-1.83.64-2.39-.11-1.12-1.49-.95-2.87.46-3.3,2.15-.65,2.98-2.59,4.44-3.9.29-.26.51-.92.87-.73.7.36,1.28.97,1.92,1.48Z"/>
        <path class="cls-1" d="m128.48,325.28c.27-.48.08-.85-.37-1.01-1.48-.53-.55-1.7-.27-2.13.51-.8,1.06.09,1.54.45,1.48,1.11,3.02,2.15,4.02,3.78.35.56.71,1.11.67,1.81-.04.78.02,1.7-1.13.7-.23-.2-.61-.46-.76-.14-.79,1.73-1.31.24-1.74-.19-.72-.7-.75-1.98-1.99-2.32-.3-.08-.2-.63.02-.96Z"/>
        <path class="cls-1" d="m124.09,323.09c-.6-1.29-2.92-1.08-2.61-3.11-1.67,0-1.3-2-2.55-2.57-.91-.41-1.88-1.25-1.47-2.53.3-.95,1.21-.99,2.08-.99,1.41,0,2.01.78,2.21,2.07.2,1.31.64,2.5,1.45,3.59.75,1,.89,2.25.89,3.54Z"/>
        <path class="cls-1" d="m19.34,337.66c.92-1.21,2.43-1.51,3.3-2.65.38-.5,1.05-.3,1.62.02,1.66.92,2.25.65,2.75-1.2.1-.35.3-.47.62-.51,1.07-.11,1.58.87,2.04,1.43.38.46-.53,1.23-1.24,1.4-1.21.29-2.57.85-3.66.55-1.67-.46-2.78.3-4.08.87-.34.15-.73.44-1.36.09Z"/>
        <path class="cls-1" d="m30.01,280.03c.38.47.62,1.06.89,1.07,2.22.15,3.03,2.28,4.66,3.22.29.17.74.29.47.76-.19.35-.51.17-.78.06-.06-.02-.12-.07-.17-.05-1.9.61-2.76-.4-3.28-2.04-.06-.19-.5-.29-.79-.36q-1.99-.53-1.02-2.66Z"/>
        <path class="cls-1" d="m34.33,301.87c1.02-.16,1.79-.09,2.48-.52.94-.59,1.48.09,2.13.64.8.66.25,1.31.1,1.93-.12.52-.56.77-1.11.51-1.26-.59-2.59-1.1-3.59-2.56Z"/>
        <path class="cls-1" d="m6.23,337.14c-2.33.12-4.12-1.38-6.23-2.04.96-.13,1.9.04,2.67-.66.11-.1.6-.01.64.09.55,1.36,2.17,1.37,2.92,2.61Z"/>
        <path class="cls-1" d="m30.29,333.38c.87.49,2.11-2.29,2.76.48.1.44.97,0,1.14.62-1.28.4-2.2.18-3.9-1.1Z"/>
        <path class="cls-1" d="m48.97,333.37c-.2-.84-.39-1.72.28-1.73.88-.02,1.92-.15,2.71.51.12.1.12.49.02.64-.18.27-.54.28-.79.11-.79-.54-1.44-.15-2.22.48Z"/>
        <path class="cls-1" d="m23.22,297.74c-1.52-.83-2.4-1.53-1.78-3.23.58,1.05,1.08,1.95,1.78,3.23Z"/>
      </g>
    </g>
  </g>
</svg>